<?xml version="1.0" encoding="utf-8"?>
<svg viewBox="0 0 500 500" xmlns="http://www.w3.org/2000/svg">
  <path class="arrow" opacity="1.000000" d="M 193.994 255.683 C 155.511 255.752 117.573 255.559 79.645 255.971 C 45.211 256.341 10.785 257.593 -23.648 258.008 C -39.02 258.192 -54.406 257.321 -69.779 256.794 C -71.984 256.718 -74.161 255.874 -76.347 255.387 C -76.412 254.839 -76.478 254.293 -76.542 253.745 C -74.71 252.958 -72.938 251.691 -71.038 251.458 C -48.902 248.762 -26.798 245.626 -4.587 243.744 C 72.194 237.236 149.165 238.896 226.091 239.465 C 268.954 239.783 311.809 241.12 354.674 241.741 C 393.877 242.31 433.084 242.511 472.289 242.919 C 496.474 243.172 520.655 243.464 544.835 243.849 C 549.195 243.919 553.545 244.528 558.198 244.91 C 555.83 240.841 553.501 237.25 551.643 233.431 C 550.937 231.985 550.595 229.08 551.362 228.483 C 552.689 227.454 555.302 226.965 556.861 227.571 C 561.064 229.203 565.525 230.9 568.923 233.724 C 574.961 238.742 580.41 244.495 585.88 250.161 C 589.833 254.257 589.213 257.658 583.931 260.004 C 571.385 265.576 558.71 270.859 546.073 276.227 C 545.244 276.579 544.214 277.011 543.425 276.813 C 539.934 275.934 536.5 274.836 533.047 273.818 C 534.383 271.006 535.395 267.963 537.165 265.456 C 538.461 263.619 540.754 262.483 543.692 260.182 C 540.34 260.182 538.084 260.198 535.829 260.18 C 476.466 259.722 417.095 259.425 357.733 258.741 C 318.351 258.289 278.976 257.276 239.597 256.522 C 224.58 256.233 209.561 255.964 193.994 255.683 Z" style="" transform="matrix(0.707107, -0.707107, 0.707107, 0.707107, -103.28598, 254.815857)"/>
  <path class="text" opacity="1.000000" d="M 442.514 488.306 C 424.179 491.19 410.623 483.926 400.921 469.39 C 397.046 463.584 393.496 462.321 386.303 463.535 C 347.605 470.062 310.037 466.915 277.528 442.657 C 225.201 403.615 221.766 328.095 269.527 281.62 C 288.797 262.869 311.202 250.227 338.494 246.962 C 349.225 245.677 359.685 241.167 370.379 240.709 C 391.637 239.8 410.503 248.085 427.373 260.455 C 460.962 285.083 482.879 317.438 489.462 358.998 C 495.084 394.488 479.657 420.458 450.578 439.338 C 443.283 444.075 435.313 447.775 427.78 451.882 C 432.752 463.681 437.85 475.778 442.514 488.306 M 367.759 414.246 C 364.621 406.407 360.927 398.737 358.514 390.682 C 356.603 384.303 359.335 378.778 365.363 375.49 C 371.28 372.266 376.756 373.739 380.895 378.548 C 384.604 382.858 387.832 387.67 390.708 392.593 C 397.279 403.841 403.504 415.293 410.829 428.379 C 423.419 421.604 435.951 416.107 447.091 408.556 C 461.578 398.737 468.207 383.94 465.147 366.524 C 457.444 322.655 431.249 292.875 391.546 274.72 C 377.079 268.104 361.026 264.234 345.236 268.104 C 320.362 274.199 300.038 288.288 284.261 308.591 C 257.51 343.015 262.627 393.449 295.833 417.781 C 320.253 435.677 348.383 436.648 378.15 434.016 C 374.561 427.269 371.399 421.323 367.759 414.246 Z" style=""/>
  <path class="text" opacity="1.000000" d="M 169.334 52.447 C 185.405 98.232 201.603 143.337 217.041 188.701 C 223.122 206.576 222.521 225.199 219.062 244.943 C 208.699 233.774 201.066 221.744 196.769 208.396 C 188.022 181.233 180.517 153.664 172.775 126.187 C 165.816 101.487 159.238 76.68 152.442 51.934 C 152.001 50.333 151.138 48.85 150.472 47.312 C 149.765 47.442 149.058 47.571 148.351 47.701 C 149.37 69.609 150.669 91.51 151.327 113.43 C 151.957 134.403 152.06 155.396 152.045 176.38 C 152.042 180.193 150.679 184.118 149.387 187.797 C 145.756 198.134 134.902 202.27 125.924 196.011 C 120.441 192.19 115.536 187.066 111.544 181.661 C 92.549 155.94 78.657 127.433 66.953 97.795 C 65.743 94.73 64.46 91.693 62.024 88.84 C 60.492 103.87 59.096 118.918 57.401 133.929 C 52.242 179.587 44.888 224.853 32.637 269.213 C 31.806 272.228 31.275 276 29.203 277.84 C 26.035 280.651 21.109 284.277 17.924 283.495 C 14.683 282.702 10.317 276.868 10.503 273.462 C 11.128 262.011 13.235 250.597 15.358 239.279 C 26.023 182.402 32.877 125.098 35.526 67.281 C 36.091 54.962 37.352 42.672 38.387 30.377 C 39.012 22.965 42.882 17.801 50.293 16.663 C 57.605 15.541 62.37 20.249 65.07 26.262 C 71.83 41.318 78.576 56.419 84.384 71.857 C 96.793 104.85 110.173 137.289 131.273 165.914 C 132.935 168.169 134.786 170.286 138.249 174.568 C 139.417 164.35 141.191 156.442 141.062 148.565 C 140.666 124.644 139.061 100.74 138.858 76.822 C 138.724 60.839 139.914 44.822 141.157 28.87 C 141.392 25.841 144.648 20.672 146.509 20.672 C 149.676 20.673 154.067 23.248 155.78 26.059 C 160.81 34.315 164.776 43.22 169.334 52.447 Z" style=""/>
  <style>
	.arrow { fill: #00BF2D; stroke: #0f172a; stroke-width: 4px; }
	.text { fill: #fafafa; stroke: #0f172a; stroke-width: 4px; }
  </style>
</svg>
